Coordinates
version=1
nRows=29
nColumns=24
inDegrees=yes

Units are S.I. units (second, meters, Newtons, ...)
Angles are in degrees.

endheader
time	pelvis_tilt	pelvis_list	pelvis_rotation	pelvis_tx	pelvis_ty	pelvis_tz	hip_flexion_r	hip_adduction_r	hip_rotation_r	knee_angle_r	ankle_angle_r	subtalar_angle_r	mtp_angle_r	hip_flexion_l	hip_adduction_l	hip_rotation_l	knee_angle_l	ankle_angle_l	subtalar_angle_l	mtp_angle_l	lumbar_extension	lumbar_bending	lumbar_rotation
      1.65500000	     14.69880245	     -0.51145628	      1.69319629	     -0.01426171	      0.93916679	      0.27764385	    -24.30048548	      5.37913769	      1.66097214	     -5.48092278	     21.98442104	      2.95086462	     14.68643949	     15.21693665	     -1.07620725	     -9.69977420	    -35.84095249	     19.17924855	      1.55040403	     39.82697078	    -30.17402387	      3.88551912	      3.15876873
      1.66000000	     14.76990588	     -0.47123659	      1.46501892	     -0.00773926	      0.93847295	      0.27773922	    -24.88987096	      5.22505068	      1.79146438	     -5.36997348	     22.20848396	      3.20153049	     14.68228876	     14.88131054	     -0.91993809	    -10.14135480	    -33.37024996	     18.71660843	      1.98564063	     39.97011083	    -30.24011897	      3.72462432	      3.42581731
      1.66500000	     14.92976603	     -0.39014344	      1.23022539	     -0.00106725	      0.93788810	      0.27769786	    -25.60653052	      5.01131138	      1.95305762	     -5.21741971	     22.45748988	      3.44133034	     14.68974831	     14.38240366	     -0.68876744	    -10.52671898	    -30.82432863	     18.19402569	      2.42472735	     40.08462025	    -30.39896430	      3.54116231	      3.64265712
      1.67000000	     15.05894407	     -0.32301290	      1.02260785	      0.00554433	      0.93718626	      0.27766914	    -26.30176617	      4.82118868	      1.98786501	     -5.02808967	     22.62755585	      3.76067423	     14.74758072	     13.92365353	     -0.47440698	    -10.91058411	    -28.30399971	     17.56764936	      2.95576198	     40.22783227	    -30.51825755	      3.37793696	      3.80303065
      1.67500000	     15.14604929	     -0.30438391	      0.85375431	      0.01203753	      0.93638777	      0.27766627	    -26.91625820	      4.70972426	      2.06560592	     -4.89480749	     22.84213838	      3.95940021	     14.77625406	     13.54130713	     -0.31851583	    -11.32240298	    -25.86691025	     16.81674219	      3.61865486	     40.46782124	    -30.60475580	      3.26942727	      4.05749291
      1.68000000	     15.15969257	     -0.35346881	      0.64738586	      0.01854530	      0.93549184	      0.27758942	    -27.39647962	      4.63661716	      2.20075562	     -4.85954213	     23.08544925	      4.38525907	     14.81370605	     13.22095512	     -0.21204843	    -11.72087034	    -23.45100005	     16.10934893	      4.19425711	     40.60145698	    -30.61702707	      3.21849216	      4.35090091
      1.68500000	     15.18538087	     -0.37516487	      0.47300744	      0.02523696	      0.93454355	      0.27758440	    -27.93947282	      4.55701245	      2.18186404	     -4.75643115	     23.27538492	      4.77619146	     14.87173470	     12.86059676	     -0.07468106	    -12.13236521	    -21.08022787	     15.49789295	      4.85611368	     40.74488501	    -30.63047462	      3.14857380	      4.55537157
      1.69000000	     15.20154994	     -0.42716587	      0.30587136	      0.03180438	      0.93355439	      0.27753690	    -28.42269270	      4.50709960	      2.20293555	     -4.73816986	     23.49926158	      5.01392111	     14.92645509	     12.52778881	      0.05072218	    -12.45766153	    -18.78385200	     14.90785804	      5.38180827	     40.93938218	    -30.63529017	      3.11115106	      4.81164574
      1.69500000	     15.26614196	     -0.42615494	      0.17037915	      0.03846448	      0.93265045	      0.27744788	    -29.01361418	      4.41788707	      2.21123973	     -4.61842847	     23.59948645	      5.19427507	     15.03705399	     12.11839658	      0.23668370	    -12.82214797	    -16.52767189	     14.35956971	      6.04912883	     41.23218562	    -30.67930147	      3.03235475	      5.01194997
      1.70000000	     15.25497660	     -0.54000195	     -0.00088013	      0.04502779	      0.93160460	      0.27732805	    -29.47772559	      4.41548015	      2.27375938	     -4.56958062	     23.75965768	      5.47395133	     15.13496964	     11.80295822	      0.31672455	    -13.10710828	    -14.38413223	     14.02655983	      6.60366309	     41.43355485	    -30.67302666	      3.06182606	      5.26494421
      1.70500000	     15.27018374	     -0.60638242	     -0.22271361	      0.05166689	      0.93056111	      0.27735714	    -29.94350882	      4.33271478	      2.30790451	     -4.59222546	     23.91175399	      5.79882434	     15.30086947	     11.47434934	      0.41712529	    -13.52391692	    -12.41304029	     13.75255881	      7.34622087	     41.60948087	    -30.68284472	      3.00320026	      5.59199948
      1.71000000	     15.28558530	     -0.69528984	     -0.37507010	      0.05833299	      0.92951521	      0.27727149	    -30.40285140	      4.30130480	      2.30956163	     -4.62602330	     24.01065361	      6.07633552	     15.54583702	     11.17374756	      0.51150123	    -13.94056458	    -10.59283838	     13.48256911	      8.11368737	     41.74940575	    -30.68212673	      3.00549397	      5.77327885
      1.71500000	     15.14133093	     -0.80436041	     -0.45751255	      0.06510929	      0.92824724	      0.27706265	    -30.67734451	      4.32096121	      2.22802389	     -4.70246688	     24.15236426	      6.43250427	     15.75458271	     11.09012665	      0.59932446	    -14.25863002	     -8.98608037	     13.41660442	      8.78228470	     41.84678385	    -30.50723560	      3.06900091	      5.93325201
      1.72000000	     15.03821077	     -0.88290196	     -0.41184752	      0.07207085	      0.92697752	      0.27671449	    -31.02135594	      4.38012864	      1.97697664	     -4.75675833	     24.29767151	      6.83985905	     16.05896154	     11.01333798	      0.73055880	    -14.47877568	     -7.62376013	     13.38371545	      9.57158933	     41.96142925	    -30.34367648	      3.15538879	      5.98181150
      1.72500000	     14.86074294	     -0.99997593	     -0.42046319	      0.07881993	      0.92562459	      0.27639246	    -31.19607686	      4.44526270	      1.74743813	     -4.96708902	     24.47294126	      7.27750646	     16.37992247	     11.06866438	      0.80578730	    -14.74947611	     -6.48390284	     13.32219959	     10.34897929	     42.00323555	    -30.12814072	      3.26554626	      6.11049182
      1.73000000	     14.69464195	     -1.13679962	     -0.42050446	      0.08559695	      0.92430375	      0.27611295	    -31.37407586	      4.53366847	      1.53866591	     -5.18332271	     24.59759699	      7.70936028	     16.72910057	     11.20465870	      0.82728529	    -15.10436822	     -5.71509557	     13.45949577	     11.17741586	     41.92758722	    -29.93059712	      3.38203729	      6.23635061
      1.73500000	     14.64983935	     -1.22465479	     -0.51204736	      0.09255678	      0.92320519	      0.27595600	    -31.70498841	      4.52238551	      1.46942712	     -5.35906162	     24.47173580	      7.96058291	     18.50666946	     11.18429205	      0.87780187	    -15.67891078	     -5.10577401	     13.71802639	     12.20045483	     41.08242158	    -29.84214502	      3.40174303	      6.44056703
      1.74000000	     14.46398302	     -1.35471679	     -0.53880976	      0.09949686	      0.92192186	      0.27575977	    -31.81134254	      4.59626366	      1.29454130	     -5.70032361	     24.62027829	      8.34044672	     18.65879032	     11.40876571	      0.85751397	    -16.11572682	     -4.83441890	     13.81603862	     13.09102184	     41.08221392	    -29.60438508	      3.49263384	      6.49381066
      1.74500000	     14.28009665	     -1.49858737	     -0.57682936	      0.10644081	      0.92061469	      0.27558587	    -31.89676100	      4.67257137	      1.11744259	     -6.08776998	     24.75060720	      8.78264412	     18.88115735	     11.70340659	      0.80102831	    -16.44923991	     -4.86857983	     14.03607465	     13.69218157	     41.07565530	    -29.37744089	      3.59236833	      6.60390445
      1.75000000	     14.17181278	     -1.57727557	     -0.67955756	      0.11356866	      0.91946100	      0.27555513	    -32.08580283	      4.66041259	      1.06704194	     -6.43407696	     24.78598213	      9.02194124	     19.36484661	     11.94129377	      0.77192307	    -16.72931986	     -5.17042778	     14.29943261	     14.18629347	     40.91411823	    -29.21477000	      3.58835053	      6.75845965
      1.75500000	     14.17250046	     -1.64619792	     -0.71568470	      0.12076090	      0.91850605	      0.27546524	    -32.45245185	      4.65777907	      1.01821628	     -6.64911285	     24.57764630	      9.24563378	     21.19237127	     12.03168506	      0.76266939	    -16.57692098	     -5.58368614	     14.56472621	     14.21675727	     39.84016112	    -29.16191333	      3.58836023	      6.81415974
      1.76000000	     14.14426100	     -1.67348741	     -0.91022147	      0.12801981	      0.91755312	      0.27551403	    -32.69062888	      4.51689261	      1.08653577	     -7.08130025	     24.67043164	      9.59018226	     21.34758201	     12.16777263	      0.76131151	    -16.50861595	     -6.18950894	     14.71012785	     14.06722277	     39.80701755	    -29.07253093	      3.48962229	      7.01934856
      1.76500000	     14.05804664	     -1.63887802	     -1.01795768	      0.13539206	      0.91656510	      0.27541320	    -32.80706945	      4.34791993	      0.81404405	     -7.64513214	     24.73637045	     10.17145980	     21.62610272	     12.40547050	      0.82477837	    -16.27322600	     -7.01399902	     14.86075484	     13.87549055	     39.65744848	    -28.90664119	      3.37389932	      7.07092692
      1.77000000	     13.99277475	     -1.53812150	     -1.09650876	      0.14282407	      0.91561592	      0.27524611	    -32.96151621	      4.12155418	      0.49184734	     -8.18257135	     24.76302847	     10.83430742	     22.12393614	     12.61903235	      0.96717526	    -15.99791534	     -7.95126633	     15.00305253	     13.51270987	     39.34621698	    -28.76342055	      3.20153950	      7.08593293
      1.77500000	     14.01967632	     -1.41620911	     -1.15703163	      0.15030606	      0.91478001	      0.27500584	    -33.24449289	      3.87702016	      0.26784078	     -8.64491409	     24.62966845	     11.34863720	     23.76896765	     12.71796680	      1.13868617	    -15.58480946	     -8.97952223	     15.25192332	     13.15933211	     38.27851568	    -28.71083033	      3.01125682	      7.04466321
      1.78000000	     14.00392800	     -1.27891519	     -1.43771555	      0.15783628	      0.91398121	      0.27507579	    -33.39259758	      3.50199410	      0.25469029	     -9.29001157	     24.69862770	     11.88385034	     24.20594363	     12.86069728	      1.24938727	    -15.52831966	    -10.13509430	     15.47081221	     13.06767151	     38.08097581	    -28.61972372	      2.70971672	      7.23158962
      1.78500000	     14.10825010	     -1.10352152	     -1.50471820	      0.16547461	      0.91329765	      0.27488625	    -33.76308260	      3.21273288	      0.08094313	     -9.73622041	     24.43539101	     12.25371362	     26.07786710	     12.81779212	      1.48835808	    -14.94250690	    -11.24487150	     15.65700567	     12.60838014	     37.20276298	    -28.62219019	      2.45738271	      7.17288652
      1.79000000	     14.01009756	     -0.96118706	     -1.64056232	      0.17312389	      0.91237193	      0.27488959	    -33.83192696	      2.92828231	      0.06864715	    -10.36035670	     24.39936919	     12.57831157	     26.71715375	     12.94794969	      1.69336699	    -14.30883759	    -12.31460876	     15.72338754	     12.00410305	     36.93762510	    -28.42671522	      2.19772641	      7.17903894
      1.79500000	     13.96458026	     -0.83017389	     -1.82643462	      0.18082387	      0.91152793	      0.27496582	    -33.91175730	      2.61703619	      0.01769783	    -11.08248487	     24.24793621	     12.96708511	     27.40561413	     13.07343682	      1.90807473	    -13.86600175	    -13.44591218	     15.40738109	     11.35720160	     36.86443445	    -28.27325096	      1.92248959	      7.24241791
